<?xml version="1.0" encoding="utf-8"?>
<!-- Generator: Adobe Illustrator 24.1.0, SVG Export Plug-In . SVG Version: 6.00 Build 0)  -->
<svg version="1.1" id="Calque_1" xmlns="http://www.w3.org/2000/svg" xmlns:xlink="http://www.w3.org/1999/xlink" x="0px" y="0px"
	 viewBox="0 0 59.91 53.24" style="enable-background:new 0 0 59.91 53.24;" xml:space="preserve">
<style type="text/css">
	.st0{fill:#636363;}
</style>
<g>
	<path class="st0" d="M1.02,12.38c0.07-0.32,0.12-0.65,0.2-0.97C1.95,8.72,4.46,6.85,7.2,6.98c2.87,0.13,5.18,2.15,5.68,4.95
		c0.57,3.18-1.58,6.32-4.71,6.89c-3.34,0.6-6.44-1.49-7.05-4.74c-0.03-0.17-0.07-0.34-0.11-0.51C1.02,13.17,1.02,12.78,1.02,12.38z"
		/>
	<path class="st0" d="M1.02,39.74c0.08-0.35,0.14-0.71,0.24-1.05c0.76-2.68,3.28-4.45,6.13-4.31c2.7,0.14,5.03,2.22,5.5,4.92
		c0.6,3.47-1.83,6.67-5.32,7c-0.08,0.01-0.15,0.03-0.23,0.05c-0.24,0-0.47,0-0.71,0c-0.06-0.02-0.13-0.04-0.19-0.05
		c-2.56-0.25-4.65-2.07-5.24-4.58c-0.06-0.26-0.11-0.53-0.16-0.8C1.02,40.53,1.02,40.13,1.02,39.74z"/>
	<path class="st0" d="M1.02,26.06c0.08-0.34,0.13-0.69,0.23-1.03c0.78-2.78,3.33-4.53,6.31-4.33c2.66,0.18,4.98,2.38,5.37,5.1
		c0.47,3.33-1.84,6.34-5.22,6.79c-3.18,0.43-6.2-1.92-6.63-5.15c-0.01-0.07-0.04-0.13-0.05-0.2C1.02,26.85,1.02,26.45,1.02,26.06z"
		/>
	<path class="st0" d="M37.57,45.45c-5.29,0-10.58,0-15.86,0c-2.56,0-4.72-1.75-5.23-4.21c-0.71-3.41,1.78-6.49,5.26-6.49
		c5.66-0.01,11.32,0,16.98,0c4.9,0,9.81,0,14.71,0c2.65,0,4.79,1.76,5.3,4.35c0.6,3-1.58,5.98-4.62,6.32
		c-0.27,0.03-0.55,0.05-0.82,0.05C48.04,45.45,42.8,45.45,37.57,45.45z"/>
	<path class="st0" d="M37.58,31.76c-5.25,0-10.5,0.01-15.75,0c-2.2-0.01-3.9-0.95-4.91-2.93c-1.82-3.55,0.74-7.77,4.73-7.77
		c10.62-0.01,21.23-0.01,31.85,0c2.85,0,5.14,2.18,5.32,5c0.17,2.79-1.87,5.28-4.64,5.66c-0.31,0.04-0.63,0.05-0.94,0.05
		C48.02,31.76,42.8,31.76,37.58,31.76z"/>
	<path class="st0" d="M37.56,18.06c-5.22,0-10.44-0.01-15.66,0c-1.82,0-3.34-0.62-4.44-2.08c-1.3-1.72-1.5-3.64-0.59-5.58
		s2.51-2.92,4.65-3.04c0.13-0.01,0.26-0.01,0.38-0.01c10.45,0,20.9,0,31.34,0c1.58,0,2.97,0.46,4.06,1.62
		c1.46,1.56,1.9,3.4,1.21,5.42c-0.68,2.02-2.15,3.21-4.25,3.59c-0.35,0.06-0.72,0.07-1.09,0.07C47.98,18.06,42.77,18.06,37.56,18.06
		z"/>
</g>
</svg>
