<?xml version="1.0" encoding="utf-8"?>
<!-- Generator: Adobe Illustrator 24.1.0, SVG Export Plug-In . SVG Version: 6.00 Build 0)  -->
<svg version="1.1" id="Calque_1" focusable="false" xmlns="http://www.w3.org/2000/svg" xmlns:xlink="http://www.w3.org/1999/xlink"
	 x="0px" y="0px" viewBox="0 0 512 512" style="enable-background:new 0 0 512 512;" xml:space="preserve">
<style type="text/css">
	.st0{fill:#FFFFFF;}
</style>
<path class="st0" d="M256,56c110.5,0,200,89.5,200,200c0,110.5-89.5,200-200,200c-110.5,0-200-89.5-200-200
	C56,145.5,145.5,56,256,56 M396.2,186.3l-22.5-22.7c-4.7-4.7-12.3-4.7-17-0.1L215.3,303.7l-59.8-60.3c-4.7-4.7-12.3-4.7-17-0.1
	l-22.7,22.5c-4.7,4.7-4.7,12.3-0.1,17l90.8,91.5c4.7,4.7,12.3,4.7,17,0.1l172.6-171.2C400.8,198.6,400.9,191,396.2,186.3
	L396.2,186.3z"/>
</svg>
