<?xml version="1.0" encoding="utf-8"?>
<!-- Generator: Adobe Illustrator 24.1.0, SVG Export Plug-In . SVG Version: 6.00 Build 0)  -->
<svg version="1.1" id="Calque_1" xmlns="http://www.w3.org/2000/svg" xmlns:xlink="http://www.w3.org/1999/xlink" x="0px" y="0px"
	 viewBox="0 0 59.91 53.24" style="enable-background:new 0 0 59.91 53.24;" xml:space="preserve">
<style type="text/css">
	.st0{clip-path:url(#SVGID_2_);}
	.st1{clip-path:url(#SVGID_4_);}
</style>
<g>
	<defs>
		<rect id="SVGID_1_" x="-476.99" y="-409.13" width="1055" height="867"/>
	</defs>
	<clipPath id="SVGID_2_">
		<use xlink:href="#SVGID_1_"  style="overflow:visible;"/>
	</clipPath>
	<path class="st0" d="M353.28,17.26L56.27,319.86c-4.06,4.06-7.45,4.06-11.51,0l-297.02-302.6
		c-61.81-62.99-74.34-182.21,12.36-255.19C-174.03-293.3-72.43-285-8.76-220.15l59.27,60.45l59.27-60.45
		c64.01-65.19,165.61-73.15,231.14-17.95C427.45-165.11,414.58-45.23,353.28,17.26z M393.25-300.24
		c-97.88-82.3-249.09-69.94-342.74,25.4c-93.64-95.34-244.86-107.87-342.74-25.4C-419.57-193.06-400.94-18.3-310.17,74.33
		l297.02,302.6c16.93,17.27,39.62,26.92,63.67,26.92c24.22,0,46.74-9.48,63.67-26.76L411.2,74.5
		C501.79-18.13,520.76-192.89,393.25-300.24z"/>
</g>
<g>
	<defs>
		<rect id="SVGID_3_" x="-6.48" y="-3.02" width="73.01" height="60"/>
	</defs>
	<clipPath id="SVGID_4_">
		<use xlink:href="#SVGID_3_"  style="overflow:visible;"/>
	</clipPath>
	<path class="st1" d="M50.98,26.49L30.43,47.43c-0.28,0.28-0.52,0.28-0.8,0L9.07,26.49C4.8,22.13,3.93,13.88,9.93,8.83
		c4.56-3.83,11.59-3.26,16,1.23l4.1,4.18l4.1-4.18c4.43-4.51,11.46-5.06,16-1.24C56.11,13.87,55.22,22.17,50.98,26.49z M53.75,4.52
		c-6.77-5.7-17.24-4.84-23.72,1.76c-6.48-6.6-16.95-7.46-23.72-1.76c-8.81,7.42-7.52,19.51-1.24,25.92l20.55,20.94
		c1.17,1.2,2.74,1.86,4.41,1.86c1.68,0,3.23-0.66,4.41-1.85l20.55-20.94C61.26,24.04,62.57,11.95,53.75,4.52z"/>
</g>
</svg>
