<?xml version="1.0" encoding="utf-8"?>
<!-- Generator: Adobe Illustrator 24.1.0, SVG Export Plug-In . SVG Version: 6.00 Build 0)  -->
<svg version="1.1" id="Calque_1" xmlns="http://www.w3.org/2000/svg" xmlns:xlink="http://www.w3.org/1999/xlink" x="0px" y="0px"
	 viewBox="0 0 42 45.1" style="enable-background:new 0 0 42 45.1;" xml:space="preserve">
<style type="text/css">
	.st0{fill:#FFFFFF;}
</style>
<path class="st0" d="M31.15,26.41l-1.32,15.42C29.72,43,30.7,44,31.93,44h4.93c1.17,0,2.11-0.89,2.11-2V3.34c0-1.1-0.94-2-2.11-2
	C29.6,1.34,17.37,16.21,31.15,26.41L31.15,26.41z M20.65,2.61c0.07,0.39,1.42,7.87,1.42,10.73c0,4.36-2.45,7.47-6.07,8.71
	l1.14,19.84c0.06,1.14-0.9,2.11-2.11,2.11H9.39c-1.21,0-2.18-0.96-2.11-2.11l1.14-19.84c-3.63-1.25-6.07-4.37-6.07-8.71
	C2.34,10.47,3.69,3,3.76,2.61C4.04,0.91,7.75,0.89,7.98,2.7v11.76c0.11,0.28,1.33,0.27,1.41,0c0.12-2.11,0.7-11.6,0.7-11.81
	c0.29-1.73,3.94-1.73,4.22,0c0.02,0.22,0.58,9.71,0.7,11.81c0.08,0.27,1.3,0.28,1.41,0V2.7C16.65,0.9,20.37,0.91,20.65,2.61z"/>
</svg>
