<?xml version="1.0" encoding="utf-8"?>
<!-- Generator: Adobe Illustrator 24.1.0, SVG Export Plug-In . SVG Version: 6.00 Build 0)  -->
<svg version="1.1" id="Calque_1" xmlns="http://www.w3.org/2000/svg" xmlns:xlink="http://www.w3.org/1999/xlink" x="0px" y="0px"
	 viewBox="0 0 30.8 30.8" style="enable-background:new 0 0 30.8 30.8;" xml:space="preserve">
<style type="text/css">
	.st0{fill:#7459A2;stroke:#7459A2;stroke-miterlimit:10;}
	.st1{fill:#FFFFFF;}
</style>
<circle class="st0" cx="15.4" cy="15.5" r="14.7"/>
<g>
	<path class="st1" d="M12.4,18.7c0.4,0.3,1.3,0.7,2.3,0.7c1.8,0,2.4-1.2,2.4-2c0-1.5-1.3-2.1-2.7-2.1h-0.8v-1.1h0.8
		c1,0,2.3-0.5,2.3-1.8c0-0.8-0.5-1.6-1.9-1.6c-0.8,0-1.6,0.4-2.1,0.7l-0.4-1c0.6-0.4,1.6-0.8,2.8-0.8c2.1,0,3,1.2,3,2.5
		c0,1.1-0.6,2-1.9,2.5v0c1.3,0.3,2.4,1.2,2.4,2.7c0,1.7-1.3,3.2-3.8,3.2c-1.2,0-2.2-0.4-2.7-0.7L12.4,18.7z"/>
</g>
</svg>
