<?xml version="1.0" encoding="utf-8"?>
<!-- Generator: Adobe Illustrator 24.1.0, SVG Export Plug-In . SVG Version: 6.00 Build 0)  -->
<svg version="1.1" id="Calque_1" xmlns="http://www.w3.org/2000/svg" xmlns:xlink="http://www.w3.org/1999/xlink" x="0px" y="0px"
	 viewBox="0 0 38.12 61" style="enable-background:new 0 0 38.12 61;" xml:space="preserve">
<style type="text/css">
	.st0{fill:#757575;}
</style>
<path class="st0" d="M32.41,44.32c0,0.79-0.64,1.43-1.43,1.43H7.15c-0.79,0-1.43-0.64-1.43-1.43V7.15c0-0.79,0.64-1.43,1.43-1.43
	h23.83c0.79,0,1.43,0.64,1.43,1.43V44.32z M19.06,57.19c-2.11,0-3.81-1.7-3.81-3.81c0-2.11,1.7-3.81,3.81-3.81s3.81,1.7,3.81,3.81
	C22.88,55.48,21.17,57.19,19.06,57.19z M32.41,0H5.72C2.56,0,0,2.56,0,5.72v49.56C0,58.44,2.56,61,5.72,61h26.69
	c3.16,0,5.72-2.56,5.72-5.72V5.72C38.12,2.56,35.56,0,32.41,0z"/>
</svg>
