<?xml version="1.0" encoding="utf-8"?>
<!-- Generator: Adobe Illustrator 24.1.0, SVG Export Plug-In . SVG Version: 6.00 Build 0)  -->
<svg version="1.1" id="Calque_1" xmlns="http://www.w3.org/2000/svg" xmlns:xlink="http://www.w3.org/1999/xlink" x="0px" y="0px"
	 viewBox="0 0 48.9 45.1" style="enable-background:new 0 0 48.9 45.1;" xml:space="preserve">
<style type="text/css">
	.st0{clip-path:url(#SVGID_2_);fill:#FFFFFF;}
</style>
<g>
	<defs>
		<rect id="SVGID_1_" y="2" width="48.9" height="40.19"/>
	</defs>
	<clipPath id="SVGID_2_">
		<use xlink:href="#SVGID_1_"  style="overflow:visible;"/>
	</clipPath>
	<path class="st0" d="M48.57,14.34L42.46,3.75c-0.67-1.17-2.17-1.57-3.34-0.89l-7.9,4.56h-7.81c-0.92,0-1.81,0.26-2.59,0.74
		l-2.56,1.6c-0.72,0.44-1.15,1.23-1.15,2.07v9.65c0,1.69,1.37,3.06,3.06,3.06s3.06-1.37,3.06-3.06v-6.72h14.06
		c2.36,0,4.28,1.92,4.28,4.28v2.18l6.11-3.53C48.85,17,49.24,15.51,48.57,14.34z M37.29,17.2H25.67v4.28c0,3.03-2.47,5.5-5.5,5.5
		s-5.5-2.47-5.5-5.5v-9.29l-4.96,2.98c-1.47,0.88-2.38,2.48-2.38,4.19v3.61L1.22,26.5c-1.17,0.67-1.57,2.17-0.89,3.34l6.11,10.59
		c0.67,1.17,2.17,1.57,3.34,0.89l7.9-4.56h10.44c2.7,0,4.89-2.19,4.89-4.89h1.22c1.35,0,2.44-1.09,2.44-2.44v-4.89h0.61
		c1.02,0,1.83-0.82,1.83-1.83v-3.67C39.12,18.02,38.3,17.2,37.29,17.2z"/>
</g>
</svg>
