<?xml version="1.0" encoding="utf-8"?>
<!-- Generator: Adobe Illustrator 24.1.0, SVG Export Plug-In . SVG Version: 6.00 Build 0)  -->
<svg version="1.1" id="Calque_1" xmlns="http://www.w3.org/2000/svg" xmlns:xlink="http://www.w3.org/1999/xlink" x="0px" y="0px"
	 viewBox="0 0 59.91 53.24" style="enable-background:new 0 0 59.91 53.24;" xml:space="preserve">
<style type="text/css">
	.st0{clip-path:url(#SVGID_2_);}
	.st1{fill:#636363;}
</style>
<g>
	<defs>
		<rect id="SVGID_1_" x="-476.99" y="-409.13" width="1055" height="867"/>
	</defs>
	<clipPath id="SVGID_2_">
		<use xlink:href="#SVGID_1_"  style="overflow:visible;"/>
	</clipPath>
	<path class="st0" d="M353.28,17.26L56.27,319.86c-4.06,4.06-7.45,4.06-11.51,0l-297.02-302.6
		c-61.81-62.99-74.34-182.21,12.36-255.19C-174.03-293.3-72.43-285-8.76-220.15l59.27,60.45l59.27-60.45
		c64.01-65.19,165.61-73.15,231.14-17.95C427.45-165.11,414.58-45.23,353.28,17.26z M393.25-300.24
		c-97.88-82.3-249.09-69.94-342.74,25.4c-93.64-95.34-244.86-107.87-342.74-25.4C-419.57-193.06-400.94-18.3-310.17,74.33
		l297.02,302.6c16.93,17.27,39.62,26.92,63.67,26.92c24.22,0,46.74-9.48,63.67-26.76L411.2,74.5
		C501.79-18.13,520.76-192.89,393.25-300.24z"/>
</g>
<path class="st1" d="M50.62,30.53c-0.94,0-1.87-0.14-2.77-0.36v9.36h-36v-9.36c-0.9,0.21-1.83,0.36-2.77,0.36
	c-0.56,0-1.13-0.04-1.69-0.11c-0.52-0.07-1.04-0.2-1.54-0.34v18.45c0,1.66,1.34,3,3,3h42c1.66,0,3-1.34,3-3V30.08
	c-0.51,0.15-1.01,0.27-1.54,0.34C51.75,30.5,51.19,30.53,50.62,30.53L50.62,30.53z M57.42,14.65l-6.08-9.71
	c-0.54-0.87-1.51-1.41-2.54-1.41H10.92c-1.03,0-2,0.53-2.54,1.41l-6.08,9.71c-3.14,5.02-0.36,11.99,5.51,12.79
	c0.42,0.06,0.85,0.08,1.28,0.08c2.77,0,5.23-1.22,6.92-3.1c1.69,1.88,4.15,3.1,6.92,3.1c2.77,0,5.23-1.22,6.92-3.1
	c1.69,1.88,4.15,3.1,6.92,3.1c2.77,0,5.23-1.22,6.92-3.1c1.7,1.88,4.15,3.1,6.92,3.1c0.44,0,0.86-0.03,1.28-0.08
	C57.77,26.65,60.57,19.68,57.42,14.65z"/>
</svg>
